#!OML:ASF F:\VICON\USERDATA\INSTALL\rory3\rory3.ASF
:FULLY-SPECIFIED
:DEGREES
192
root -0.358541 26.0084 -0.60213 3.4565 0.88111 2.70216
lowerback 7.74462 -0.254626 -0.566238
upperback 0.0792052 -0.413263 -0.54018
thorax -4.26257 -0.19836 -0.194532
lowerneck -15.5296 -0.396057 -5.77072
upperneck 3.59332 0.114555 5.99633
head 3.55794 0.289976 2.78907
rclavicle 6.48535e-015 -9.93923e-016
rhumerus -35.5955 -29.6066 -29.4227
rradius 42.7752
rwrist 8.77822
rhand -32.4049 -1.65801
rfingers 7.12502
rthumb -5.63967 -31.563
lclavicle 6.48535e-015 -9.93923e-016
lhumerus -36.9568 28.6359 37.2768
lradius 55.5675
lwrist 21.5085
lhand -28.4855 25.3352
lfingers 7.12502
lthumb -1.85483 55.3069
rfemur -9.28501 12.1071 16.7011
rtibia 27.2765
rfoot 8.83657 -14.3942
rtoes -5.28686
lfemur -7.3374 -0.548499 -20.208
ltibia 21.4602
lfoot 17.9786 9.20936
ltoes -2.46152
193
root -0.369173 26.0113 -0.609916 3.60075 0.97512 2.57735
lowerback 7.7292 -0.288889 -0.425167
upperback 0.0396129 -0.445666 -0.523281
thorax -4.29597 -0.217094 -0.252656
lowerneck -15.7352 -0.42868 -5.69304
upperneck 3.78927 0.0689173 5.87795
head 3.65246 0.265146 2.73881
rclavicle 1.15792e-014 -3.37934e-015
rhumerus -36.1944 -29.1474 -29.8753
rradius 41.516
rwrist 7.80872
rhand -32.2605 -1.78915
rfingers 7.12502
rthumb -5.50028 -31.6978
lclavicle 1.15792e-014 -3.37934e-015
lhumerus -37.5587 28.3604 37.7795
lradius 53.8041
lwrist 19.4294
lhand -25.1164 23.3403
lfingers 7.12502
lthumb 1.39917 53.3155
rfemur -9.40072 12.2281 16.7858
rtibia 26.9492
rfoot 8.26968 -15.6761
rtoes -2.58462
lfemur -7.49973 -0.733745 -20.0126
ltibia 21.2822
lfoot 16.721 9.1323
ltoes -5.03294
194
root -0.377866 26.0027 -0.623005 3.72989 1.11482 2.46408
lowerback 7.78686 -0.340462 -0.262362
upperback 0.028512 -0.498976 -0.497554
thorax -4.34115 -0.246593 -0.311132
lowerneck -15.9323 -0.440347 -5.76303
upperneck 3.84639 0.0796468 5.82292
head 3.69977 0.268938 2.73537
rclavicle 2.18663e-015 -5.96354e-016
rhumerus -36.7229 -28.5537 -30.4546
rradius 40.4482
rwrist 6.81826
rhand -32.1244 -2.01104
rfingers 7.12502
rthumb -5.36884 -31.923
lclavicle 2.18663e-015 -5.96354e-016
lhumerus -37.9767 27.9167 38.5791
lradius 52.2503
lwrist 18.5926
lhand -23.7569 21.9011
lfingers 7.12502
lthumb 2.71215 51.8636
rfemur -9.46255 12.1858 16.8546
rtibia 26.645
rfoot 7.54063 -16.5891
rtoes -1.23038
lfemur -7.71252 -0.89259 -19.8206
ltibia 21.1771
lfoot 16.2241 8.96281
ltoes -6.74441
195
root -0.385255 25.9805 -0.632972 3.77318 1.32158 2.49589
lowerback 7.86199 -0.384709 -0.203819
upperback 0.0370313 -0.553942 -0.521085
thorax -4.37554 -0.275247 -0.361699
lowerneck -15.7595 -0.430871 -5.87865
upperneck 3.59223 0.109377 5.88995
head 3.59318 0.283205 2.77445
rclavicle -6.08778e-015 -5.36719e-015
rhumerus -37.3203 -27.769 -31.0555
rradius 39.5282
rwrist 5.86588
rhand -31.872 -2.42286
rfingers 7.12502
rthumb -5.12512 -32.3409
lclavicle -6.08778e-015 -5.36719e-015
lhumerus -38.1901 27.3485 39.5994
lradius 50.8281
lwrist 18.4147
lhand -24.2581 21.8763
lfingers 7.12502
lthumb 2.2281 51.8444
rfemur -9.37278 12.0129 16.7716
rtibia 26.3667
rfoot 6.35332 -17.1557
rtoes -1.55863
lfemur -7.86881 -1.03719 -19.7857
ltibia 21.179
lfoot 16.3026 8.68316
ltoes -5.62633
196
root -0.392644 25.9432 -0.642088 3.73506 1.50487 2.4994
lowerback 7.98813 -0.41512 -0.140024
upperback 0.071494 -0.589743 -0.539318
thorax -4.41162 -0.294447 -0.411591
lowerneck -15.5843 -0.374235 -5.78565
upperneck 3.42986 0.168567 5.82184
head 3.51248 0.307948 2.74033
rclavicle -3.05631e-015 -9.14409e-015
rhumerus -37.9232 -27.2338 -31.6159
rradius 38.588
rwrist 5.34051
rhand -31.6036 -2.87925
rfingers 7.12502
rthumb -4.86601 -32.8034
lclavicle -3.05631e-015 -9.14409e-015
lhumerus -38.3357 26.6971 40.6676
lradius 49.5577
lwrist 18.3187
lhand -24.7741 22.3728
lfingers 7.12502
lthumb 1.72975 52.3455
rfemur -9.23147 11.9373 16.7099
rtibia 26.1043
rfoot 4.96816 -17.6031
rtoes -3.01262
lfemur -7.93455 -1.1521 -19.7231
ltibia 21.2363
lfoot 15.7231 8.2495
ltoes -5.3856
197
root -0.400304 25.8892 -0.65436 3.70492 1.60324 2.35078
lowerback 8.12953 -0.441027 0.0402247
upperback 0.120212 -0.606225 -0.509143
thorax -4.44203 -0.306051 -0.478902
lowerneck -15.6722 -0.339992 -5.67725
upperneck 3.5322 0.205035 5.68385
head 3.55511 0.321371 2.68371
rclavicle 6.5102e-015 -2.5842e-015
rhumerus -38.4386 -26.7651 -32.2629
rradius 37.7368
rwrist 5.06698
rhand -31.1782 -2.53194
rfingers 7.12502
rthumb -4.45523 -32.4651
lclavicle 6.5102e-015 -2.5842e-015
lhumerus -38.5229 25.9804 41.7755
lradius 48.5025
lwrist 18.4037
lhand -25.1664 22.6307
lfingers 7.12502
lthumb 1.35081 52.6061
rfemur -9.14599 12.0286 16.7747
rtibia 25.8341
rfoot 3.39849 -17.9131
rtoes -4.16808
lfemur -8.04464 -1.19229 -19.4947
ltibia 21.3619
lfoot 14.9842 8.04993
ltoes -5.83008
198
root -0.407385 25.8223 -0.66842 3.6536 1.63987 2.24133
lowerback 8.31555 -0.468832 0.150504
upperback 0.153374 -0.630801 -0.464397
thorax -4.51292 -0.320059 -0.490332
lowerneck -15.735 -0.323676 -5.73942
upperneck 3.63113 0.238444 5.68958
head 3.59315 0.337929 2.69907
rclavicle 5.01931e-015 -1.0138e-014
rhumerus -38.8139 -26.2144 -32.999
rradius 36.8948
rwrist 5.05719
rhand -30.7696 -1.45153
rfingers 7.12502
rthumb -4.06067 -31.3926
lclavicle 5.01931e-015 -1.0138e-014
lhumerus -38.7258 25.3356 42.8623
lradius 47.4112
lwrist 18.4474
lhand -25.7345 22.9454
lfingers 7.12502
lthumb 0.80221 52.9237
rfemur -9.04178 12.2421 16.7866
rtibia 25.5425
rfoot 1.83498 -17.7435
rtoes -5.89945
lfemur -8.21321 -1.12126 -19.3092
ltibia 21.625
lfoot 14.5121 7.72223
ltoes -6.03991
199
root -0.417807 25.7443 -0.686577 3.61841 1.6978 2.22392
lowerback 8.51924 -0.495714 0.122461
upperback 0.217532 -0.668511 -0.451036
thorax -4.56039 -0.337825 -0.454767
lowerneck -15.6286 -0.273343 -5.6281
upperneck 3.42509 0.29603 5.54813
head 3.50994 0.359311 2.63916
rclavicle 3.40419e-015 -1.98785e-015
rhumerus -39.1613 -25.8551 -33.7109
rradius 36.0991
rwrist 5.49549
rhand -29.954 -0.632114
rfingers 7.12502
rthumb -3.27306 -30.5867
lclavicle 3.40419e-015 -1.98785e-015
lhumerus -38.7631 24.8674 43.9308
lradius 46.3033
lwrist 18.3105
lhand -26.2957 23.5351
lfingers 7.12502
lthumb 0.260173 53.5147
rfemur -8.94702 12.4395 16.7082
rtibia 25.2263
rfoot 0.459558 -17.3085
rtoes -7.94754
lfemur -8.47707 -1.18896 -19.2013
ltibia 21.9798
lfoot 13.9439 7.28653
ltoes -6.12938
200
root -0.431317 25.6538 -0.710552 3.58622 1.83935 2.11366
lowerback 8.81658 -0.517603 0.173768
upperback 0.272319 -0.689405 -0.388772
thorax -4.67024 -0.348493 -0.414128
lowerneck -15.5927 -0.26391 -5.66367
upperneck 3.30175 0.320655 5.50744
head 3.46497 0.368492 2.63298
rclavicle 1.98785e-016 -5.96354e-016
rhumerus -39.5634 -25.6728 -34.2224
rradius 35.2649
rwrist 6.26412
rhand -28.6357 0.546212
rfingers 7.12502
rthumb -1.99986 -29.4242
lclavicle 1.98785e-016 -5.96354e-016
lhumerus -38.7148 24.2898 45.1328
lradius 45.3188
lwrist 18.1915
lhand -26.423 23.8193
lfingers 7.12502
lthumb 0.137158 53.799
rfemur -8.86142 12.6085 16.7496
rtibia 24.9137
rfoot -0.910614 -16.7742
rtoes -9.69426
lfemur -8.76116 -1.23709 -18.9557
ltibia 22.2954
lfoot 13.6083 6.78748
ltoes -5.47142
201
root -0.441776 25.5523 -0.731227 3.51613 2.03187 1.97527
lowerback 9.12931 -0.557219 0.305217
upperback 0.308926 -0.725399 -0.333719
thorax -4.80883 -0.368541 -0.423627
lowerneck -15.5591 -0.262941 -5.7109
upperneck 3.29235 0.324791 5.57269
head 3.45667 0.372911 2.66092
rclavicle -1.00138e-014 3.18055e-015
rhumerus -40.0495 -25.3766 -34.7775
rradius 34.4766
rwrist 7.07607
rhand -27.497 1.88604
rfingers 7.12502
rthumb -0.900075 -28.0918
lclavicle -1.00138e-014 3.18055e-015
lhumerus -38.6503 23.602 46.3548
lradius 44.3862
lwrist 18.0407
lhand -26.5953 24.1863
lfingers 7.12502
lthumb -0.0292138 54.1661
rfemur -8.73389 12.7882 16.8165
rtibia 24.6118
rfoot -2.35745 -16.2361
rtoes -11.4217
lfemur -8.96305 -1.25193 -18.6978
ltibia 22.5935
lfoot 13.0536 6.10507
ltoes -5.96502
202
root -0.450782 25.4392 -0.746979 3.40747 2.17521 1.97113
lowerback 9.36532 -0.596981 0.295153
upperback 0.413536 -0.778858 -0.339949
thorax -4.83249 -0.394484 -0.415668
lowerneck -15.5119 -0.171336 -5.41636
upperneck 3.22336 0.407371 5.34284
head 3.42384 0.405487 2.54707
rclavicle -7.40473e-015 1.19271e-014
rhumerus -40.4161 -24.7809 -35.7065
rradius 34.0137
rwrist 8.00147
rhand -27.3942 2.25184
rfingers 7.12502
rthumb -0.800814 -27.7264
lclavicle -7.40473e-015 1.19271e-014
lhumerus -38.5535 23.0437 47.4809
lradius 43.4253
lwrist 17.5302
lhand -26.4599 24.931
lfingers 7.12502
lthumb 0.101583 54.9108
rfemur -8.53093 13.0314 16.7285
rtibia 24.3168
rfoot -3.88846 -15.706
rtoes -13.0446
lfemur -9.09242 -1.26015 -18.6085
ltibia 22.9191
lfoot 12.1429 5.37314
ltoes -7.26726
203
root -0.463462 25.3123 -0.768754 3.37177 2.26042 1.99713
lowerback 9.57673 -0.598188 0.206978
upperback 0.488952 -0.789291 -0.33841
thorax -4.8711 -0.397452 -0.361344
lowerneck -15.5286 -0.100251 -5.30793
upperneck 3.26161 0.485622 5.2814
head 3.43409 0.442773 2.51645
rclavicle 4.94477e-015 -7.55382e-015
rhumerus -40.6844 -24.0411 -36.8235
rradius 33.7915
rwrist 8.87555
rhand -28.2094 1.84719
rfingers 7.12502
rthumb -1.58811 -28.1266
lclavicle 4.94477e-015 -7.55382e-015
lhumerus -38.4708 22.7362 48.4626
lradius 42.2979
lwrist 16.1772
lhand -25.0705 24.3037
lfingers 7.12502
lthumb 1.44349 54.2786
rfemur -8.45909 13.301 16.6028
rtibia 24.0114
rfoot -5.16977 -15.1568
rtoes -13.9327
lfemur -9.33243 -1.2574 -18.5462
ltibia 23.2379
lfoot 11.6801 4.7642
ltoes -6.87978
204
root -0.476936 25.1711 -0.795239 3.35643 2.3376 1.89391
lowerback 9.86049 -0.588222 0.208896
upperback 0.49283 -0.771589 -0.263491
thorax -5.02491 -0.387887 -0.284017
lowerneck -15.6438 -0.132239 -5.57232
upperneck 3.54812 0.467239 5.59117
head 3.54045 0.447415 2.65694
rclavicle -1.82136e-014 1.39149e-015
rhumerus -40.9558 -23.2855 -37.8334
rradius 33.4771
rwrist 9.31748
rhand -28.8381 1.49787
rfingers 7.12502
rthumb -2.19535 -28.4706
lclavicle -1.82136e-014 1.39149e-015
lhumerus -38.3691 22.0565 49.7818
lradius 41.7293
lwrist 15.8697
lhand -25.2926 25.5981
lfingers 7.12502
lthumb 1.22895 55.5743
rfemur -8.47971 13.6122 16.627
rtibia 23.7156
rfoot -6.04391 -14.7967
rtoes -13.8636
lfemur -9.60474 -1.23802 -18.337
ltibia 23.5511
lfoot 11.4279 4.30002
ltoes -5.43466
205
root -0.48851 25.0216 -0.813871 3.33505 2.43328 1.8512
lowerback 10.0639 -0.590595 0.172787
upperback 0.499154 -0.776866 -0.232506
thorax -5.13144 -0.389224 -0.228608
lowerneck -15.5728 -0.121492 -5.5296
upperneck 3.68834 0.460545 5.65377
head 3.57298 0.447151 2.66951
rclavicle 4.22417e-016 9.54166e-015
rhumerus -41.2292 -22.57 -38.8474
rradius 33.0285
rwrist 9.6228
rhand -29.2513 1.70192
rfingers 7.12502
rthumb -2.59444 -28.262
lclavicle 4.22417e-016 9.54166e-015
lhumerus -38.3058 21.3008 50.981
lradius 41.0256
lwrist 15.3947
lhand -25.5692 25.7152
lfingers 7.12502
lthumb 0.961832 55.6928
rfemur -8.45155 13.8781 16.5873
rtibia 23.4649
rfoot -6.82996 -14.53
rtoes -13.8368
lfemur -9.84205 -1.16632 -18.2126
ltibia 23.8683
lfoot 10.6548 3.77461
ltoes -5.50981
206
root -0.498167 24.8593 -0.828755 3.3031 2.59856 1.81608
lowerback 10.1887 -0.583642 0.211044
upperback 0.537985 -0.761681 -0.209725
thorax -5.16076 -0.382253 -0.227546
lowerneck -15.3997 -0.127276 -5.47478
upperneck 3.73536 0.436369 5.6059
head 3.56182 0.431169 2.64304
rclavicle -8.32411e-015 -3.97569e-016
rhumerus -41.5943 -21.8476 -39.7852
rradius 32.751
rwrist 10.038
rhand -29.3326 1.50898
rfingers 7.12502
rthumb -2.67296 -28.454
lclavicle -8.32411e-015 -3.97569e-016
lhumerus -38.1502 20.476 52.2393
lradius 40.219
lwrist 14.8215
lhand -25.4606 25.849
lfingers 7.12502
lthumb 1.06673 55.8261
rfemur -8.36895 14.0026 16.549
rtibia 23.2404
rfoot -7.48371 -14.3078
rtoes -13.9237
lfemur -10.0837 -1.14171 -18.1043
ltibia 24.1983
lfoot 10.0166 3.47104
ltoes -4.71363
